<svg width="34" height="33" viewBox="0 0 34 33" fill="none" xmlns="http://www.w3.org/2000/svg">
<path fill-rule="evenodd" clip-rule="evenodd" d="M30.4057 0H3.5943C1.89281 0 0.5 1.39275 0.5 3.0943V29.9057C0.5 31.6072 1.89281 33 3.5943 33H30.4057C32.1072 33 33.5 31.6072 33.5 29.9057V3.09425C33.5 1.39275 32.1072 0 30.4057 0ZM19.2594 8.96133H23.0309V4.43833H19.2594C16.3551 4.43833 13.9855 6.80728 13.9855 9.71525V11.9758H10.9698V16.5H13.9849V28.5617H18.5085V16.5H22.2763L23.0308 11.9758H18.5085V9.71525C18.5085 9.30596 18.8538 8.96071 19.2594 8.96071V8.96128V8.96133Z" fill="#FAA300"/>
</svg>
