<svg width="34" height="33" viewBox="0 0 34 33" fill="none" xmlns="http://www.w3.org/2000/svg">
<path fill-rule="evenodd" clip-rule="evenodd" d="M30.4062 0H3.59375C1.89219 0 0.5 1.39219 0.5 3.09375V29.9062C0.5 31.6078 1.89219 33 3.59375 33H30.4062C32.1078 33 33.5 31.6078 33.5 29.9062V3.09375C33.5 1.39219 32.1078 0 30.4062 0ZM12.8746 26.8124H8.75032V12.3746H12.8746V26.8124ZM10.8118 10.3118C9.6718 10.3118 8.7497 9.38979 8.7497 8.24969C8.7497 7.10903 9.67175 6.18698 10.8118 6.18698C11.9525 6.18698 12.8746 7.10903 12.8746 8.24969C12.8746 9.38974 11.9525 10.3118 10.8118 10.3118ZM27.3125 26.8124H23.1882V18.5628C23.1882 17.4221 22.2656 16.5001 21.1255 16.5001C19.9848 16.5001 19.0628 17.4221 19.0628 18.5628V26.8124H14.9373V12.3746H19.0628V14.9343C19.9123 13.7662 21.2156 12.3746 22.6718 12.3746C25.2376 12.3746 27.3124 14.6827 27.3124 17.5311V26.8124H27.3125Z" fill="#FAA300"/>
</svg>
