<svg width="34" height="33" viewBox="0 0 34 33" fill="none" xmlns="http://www.w3.org/2000/svg">
<path fill-rule="evenodd" clip-rule="evenodd" d="M30.4062 0H3.59375C1.89219 0 0.5 1.39219 0.5 3.09375V29.9062C0.5 31.6078 1.89219 33 3.59375 33H30.4062C32.1078 33 33.5 31.6078 33.5 29.9062V3.09375C33.5 1.39219 32.1078 0 30.4062 0ZM27.3155 10.1029C26.5446 10.4456 25.7261 10.669 24.888 10.7655C25.7601 10.2454 26.4294 9.41351 26.7491 8.42387C25.9312 8.90804 25.0232 9.26367 24.0634 9.45306C23.2875 8.63218 22.1894 8.1212 20.9726 8.1212C18.6352 8.1212 16.7424 10.0128 16.7424 12.3501C16.7424 12.6778 16.7777 13.0012 16.8502 13.313C13.3343 13.1334 10.2168 11.4501 8.12848 8.88974C7.75289 9.53557 7.55496 10.2693 7.55479 11.0164C7.55479 12.4842 8.30023 13.7814 9.43605 14.5359C8.74176 14.5158 8.09192 14.324 7.51762 14.0097V14.0634C7.51762 16.1133 8.97684 17.8258 10.9135 18.2131C10.55 18.3116 10.175 18.3616 9.79838 18.3618C9.52557 18.3618 9.26187 18.335 9.00061 18.2856C9.53959 19.9659 11.0999 21.1912 12.9525 21.2247C11.5018 22.3611 9.67963 23.0378 7.69545 23.0378C7.35256 23.0378 7.01823 23.0177 6.68452 22.9787C8.56088 24.1833 10.785 24.8788 13.1748 24.8788C20.9574 24.8788 25.215 18.4306 25.215 12.8392C25.215 12.6534 25.2119 12.472 25.2029 12.2899C26.0293 11.6991 26.7479 10.9525 27.3131 10.1048L27.3155 10.1029H27.3155Z" fill="#FAA300"/>
</svg>
