<svg width="34" height="33" viewBox="0 0 34 33" fill="none" xmlns="http://www.w3.org/2000/svg">
<path fill-rule="evenodd" clip-rule="evenodd" d="M30.4062 0H3.59375C1.89219 0 0.5 1.39219 0.5 3.09375V29.9062C0.5 31.6078 1.89219 33 3.59375 33H30.4062C32.1078 33 33.5 31.6078 33.5 29.9062V3.09375C33.5 1.39219 32.1078 0 30.4062 0ZM24.8965 8.55298C22.7996 6.45191 20.0122 5.29598 17.0414 5.29598C10.9233 5.29598 5.94398 10.2765 5.94398 16.3989C5.94398 18.3557 6.45553 20.2679 7.42754 21.9494L5.85024 27.704L11.7375 26.1607C13.3612 27.0444 15.1864 27.5122 17.0414 27.5122H17.0451C23.1639 27.5122 28.1492 22.5311 28.1492 16.4098C28.1492 13.4409 26.9946 10.6534 24.8965 8.55355V8.55298ZM17.045 25.6388C15.3855 25.6388 13.7625 25.1918 12.3459 24.3508L12.0079 24.1498L8.51401 25.0664L9.44698 21.6602L9.22954 21.31C8.29832 19.844 7.81544 18.1468 7.81544 16.4001C7.81544 11.3106 11.9549 7.1675 17.0499 7.1675C19.5134 7.1675 21.8356 8.13156 23.5767 9.87334C25.3167 11.6175 26.2765 13.9348 26.2765 16.4032C26.2716 21.4969 22.1309 25.6376 17.045 25.6376V25.6388ZM22.1053 18.7235C21.83 18.584 20.4641 17.9165 20.2101 17.8227C19.958 17.7278 19.771 17.6808 19.5828 17.9616C19.4013 18.2381 18.8672 18.866 18.7046 19.0523C18.5426 19.2356 18.3818 19.2607 18.1059 19.1218C17.8288 18.9829 16.9311 18.6882 15.8727 17.7442C15.0487 17.0073 14.4915 16.0974 14.3282 15.8215C14.1644 15.5475 14.3106 15.3916 14.4512 15.2582C14.5791 15.1339 14.7283 14.9336 14.8684 14.7716C15.0091 14.6096 15.0517 14.4963 15.1443 14.3075C15.2357 14.1248 15.1906 13.9634 15.1211 13.8222C15.0517 13.6833 14.4945 12.3154 14.2692 11.76C14.0456 11.2174 13.8142 11.2929 13.6431 11.2819C13.4798 11.2752 13.2978 11.2752 13.1126 11.2752C12.9299 11.2752 12.6291 11.3441 12.3727 11.6224C12.1187 11.8971 11.4019 12.57 11.4019 13.936C11.4019 15.302 12.3934 16.6193 12.5341 16.8075C12.6754 16.9914 14.4914 19.7959 17.274 20.9975C17.936 21.2807 18.4525 21.4512 18.8538 21.5816C19.5201 21.7935 20.123 21.7625 20.6011 21.6918C21.1333 21.6132 22.2418 21.0225 22.4738 20.3733C22.707 19.7247 22.707 19.1717 22.6364 19.0566C22.57 18.933 22.3879 18.866 22.106 18.7229L22.1053 18.7235Z" fill="#FAA300"/>
</svg>
